<?xml version="1.0" encoding="UTF-8"?>
<svg width="244px" height="48px" viewBox="0 0 244 48" version="1.1" xmlns="http://www.w3.org/2000/svg" xmlns:xlink="http://www.w3.org/1999/xlink">
    <!-- Generator: Sketch 52.2 (67145) - http://www.bohemiancoding.com/sketch -->
    <title>Group 5</title>
    <desc>Created with Sketch.</desc>
    <defs>
        <linearGradient x1="0.0177470879%" y1="49.9890098%" x2="100%" y2="49.9890098%" id="linearGradient-1">
            <stop stop-color="#985A36" offset="0%"></stop>
            <stop stop-color="#DCA576" offset="50%"></stop>
            <stop stop-color="#985A36" offset="100%"></stop>
        </linearGradient>
    </defs>
    <g id="Symbols" stroke="none" stroke-width="1" fill="none" fill-rule="evenodd">
        <g id="Header" transform="translate(-137.000000, -21.000000)" fill="url(#linearGradient-1)">
            <g id="Group-4">
                <g id="Group-5" transform="translate(137.000000, 21.000000)">
                    <path d="M82,25.556215 C81.9140389,25.556215 81.8267553,25.5443455 81.7355043,25.5443455 C77.5344317,25.5443455 73.0050776,25.5443455 68.8031233,25.5443455 C68.63318,25.530635 68.4734557,25.626736 68.4063798,25.7830531 C67.7596879,26.9159248 67.1010938,28.0435213 66.4477895,29.1724365 C66.4134051,29.2331025 66.3816656,29.2964062 66.3314114,29.3939993 L77.8923825,29.3939993 L77.8923825,32.6343554 L77.6027598,32.6343554 C73.4157936,32.6343554 68.900105,32.6343554 64.7113756,32.6343554 C64.5392869,32.6177958 64.375464,32.711377 64.3027298,32.8677877 C61.470863,37.768546 58.6354696,42.6666667 55.7965496,47.5621497 C55.7357156,47.6689746 55.6722367,47.7731619 55.5942104,47.9024069 C55.526764,47.840422 55.468575,47.7903066 55.4143534,47.7362348 C54.7451794,47.0768216 54.0812953,46.4002638 53.4055089,45.7421695 C53.2613588,45.6010551 53.2415216,45.5087372 53.3473199,45.3267392 C56.7857633,39.4034509 60.2197986,33.4784042 63.6494255,27.5515991 C64.3106646,26.4108144 64.9719038,25.267392 65.6331429,24.1305638 C65.7183388,24.0123644 65.7183388,23.8531154 65.6331429,23.7349159 C61.55462,16.701176 57.4765378,9.66743598 53.3988965,2.63369601 C53.275906,2.42136499 53.2970657,2.30530828 53.4676654,2.13913617 C54.1831261,1.43356413 54.8866846,0.724035608 55.6100802,0 C55.6590119,0.0764919222 55.7026537,0.141114408 55.742328,0.20705572 C58.5953544,5.13594901 61.4483809,10.0657215 64.3014073,14.9963732 C64.3798822,15.1573023 64.5515997,15.2513804 64.7298903,15.2311243 C68.9018683,15.2240906 73.4021281,15.2240906 77.5749879,15.2311243 C77.9518942,15.2311243 77.9029625,15.2087043 77.9029625,15.5568744 C77.9029625,16.4259809 77.9029625,17.2964062 77.9029625,18.1655127 L77.9029625,18.4490603 L66.3261215,18.4490603 C66.3697633,18.5374217 66.3935679,18.59545 66.4239849,18.6482031 C67.0958039,19.8087702 67.7702678,20.9666996 68.4367968,22.1299044 C68.4893465,22.2492795 68.6119764,22.3223366 68.7422893,22.3119024 C72.9874445,22.3119024 77.5604405,22.3119024 81.8055957,22.3119024 C81.8703971,22.3119024 81.9378435,22.3013518 82,22.2960765 L82,25.556215 Z M0,25.6234751 C0.044082898,25.6234751 0.164897435,25.6116057 0.210316179,25.6116057 C4.51351948,25.6116057 8.96778172,25.6116057 13.2700945,25.6116057 C13.3856483,25.6031525 13.4935495,25.6691989 13.5372635,25.7751401 C14.2194353,26.9506539 14.9047239,28.1239697 15.5931296,29.2950874 C15.6215619,29.351768 15.6469775,29.4098755 15.6692728,29.4691724 L4.22853913,29.4691724 L4.22853913,32.6989779 L4.52376096,32.6989779 C8.73879846,32.6989779 13.1048949,32.6989779 17.3190419,32.6989779 C17.492902,32.6842426 17.6572666,32.7793849 17.7291464,32.9363666 C20.6038857,37.8599846 23.4826325,42.7836026 26.3653869,47.7072206 C26.4188207,47.7995384 26.476262,47.8905374 26.5417185,48 C27.3205163,47.2311243 28.0846199,46.4793933 28.8420442,45.7223871 C28.8754904,45.6667434 28.8841904,45.5999381 28.8660895,45.5377514 C28.8395675,45.4703817 28.8045602,45.4065764 28.7618935,45.3478404 C24.6412557,38.3009122 20.5179463,31.2570612 16.3919651,24.2162875 C16.2967381,24.0893133 16.2935201,23.9166978 16.3839501,23.7863501 C18.0403984,20.9675789 19.6928391,18.1466095 21.3412723,15.3234421 C23.8348504,11.0601165 26.3284285,6.79591164 28.8220066,2.53082756 C28.8661185,2.48051398 28.8863836,2.41400563 28.8777095,2.34801532 C28.8690353,2.28202502 28.8322466,2.22282628 28.7765878,2.18529509 C28.075269,1.49818661 27.3726143,0.797889878 26.6646162,0.101549621 C26.6312201,0.0685789647 26.5898089,0.0395647873 26.5443902,0 C26.4962997,0.0791295747 26.4522168,0.145070887 26.4108056,0.213649852 C23.5191456,5.1557314 20.629712,10.0960545 17.7425048,15.0346192 C17.6604773,15.2108667 17.4745577,15.3166597 17.2789665,15.2983844 C13.0648196,15.2983844 8.69916838,15.2983844 4.48502144,15.2983844 C4.27930125,15.2983844 4.2071656,15.3445434 4.21117314,15.5621497 C4.22319575,16.4681833 4.21117314,17.3742169 4.21117314,18.2802506 C4.21117314,18.3580613 4.21785237,18.4345532 4.22319575,18.5440158 L15.6772879,18.5440158 C15.6265257,18.6402901 15.5958013,18.7035938 15.5597335,18.7655786 C14.8918108,19.901088 14.2238881,21.0339598 13.5719955,22.1734257 C13.5005378,22.3245172 13.338968,22.4133119 13.1712419,22.3936696 C8.94195538,22.3883943 4.56027407,22.3883943 0.329206419,22.3936696 C0.242376468,22.3936696 0.154210672,22.383119 0.0620373398,22.3778437 L0,25.6234751 Z M33.9545107,36.7845697 L49.0327121,36.7845697 L49.0327121,32.7413005 L38.0675119,32.7413005 L38.0675119,11.2397296 L33.9545107,11.2397296 L33.9545107,36.7845697 Z" id="Shape-Copy" fill-rule="nonzero"></path>
                    <path d="M100.675568,15.2288136 L100.675568,29.7711864 L108.289244,29.7711864 L108.289244,32.7711864 L97,32.7711864 L97,15.2288136 L100.675568,15.2288136 Z M112.119497,15.2288136 L123.408741,15.2288136 L123.408741,18.2542373 L115.795065,18.2542373 L115.795065,22.1949153 L122.621119,22.1949153 L122.621119,25.1949153 L115.795065,25.1949153 L115.795065,29.7711864 L123.408741,29.7711864 L123.408741,32.7711864 L112.119497,32.7711864 L112.119497,15.2288136 Z M134.275081,32.7711864 L127.842838,32.7711864 L127.842838,15.2288136 L134.275081,15.2288136 C138.370714,15.2288136 141.232406,17.2627119 141.232406,22.8559322 L141.232406,25.1440678 C141.232406,30.7118644 138.370714,32.7711864 134.275081,32.7711864 Z M134.275081,29.7711864 C136.716708,29.7711864 137.556838,28.1694915 137.556838,25.1440678 L137.556838,22.8559322 C137.556838,19.8305085 136.716708,18.2542373 134.275081,18.2542373 L131.518405,18.2542373 L131.518405,29.7711864 L134.275081,29.7711864 Z M153.009833,23.6440678 L159.5996,23.6440678 L159.5996,25.2457627 C159.5996,30.6101695 157.026703,33 152.93107,33 C148.861692,33 146,30.6101695 146,25.2457627 L146,23.0084746 C146,17.3389831 148.861692,15 152.93107,15 C156.737908,15 159.022011,17.0847458 159.573346,20.6694915 L156.055303,20.6694915 C155.740254,19.0677966 154.768854,18 152.93107,18 C150.804492,18 149.675568,19.3983051 149.675568,22.7542373 L149.675568,25.2457627 C149.675568,28.6016949 150.804492,30 152.93107,30 C155.005141,30 155.845271,28.7542373 156.055303,26.6440678 L153.009833,26.6440678 L153.009833,23.6440678 Z M164.094012,15.2288136 L175.383255,15.2288136 L175.383255,18.2542373 L167.769579,18.2542373 L167.769579,22.1949153 L174.595633,22.1949153 L174.595633,25.1949153 L167.769579,25.1949153 L167.769579,29.7711864 L175.383255,29.7711864 L175.383255,32.7711864 L164.094012,32.7711864 L164.094012,15.2288136 Z M193.732001,32.7711864 L189.688877,32.7711864 L186.433374,25.8813559 L183.49292,25.8813559 L183.49292,32.7711864 L179.817352,32.7711864 L179.817352,15.2288136 L186.302104,15.2288136 C190.476498,15.2288136 193.07565,17.0338983 193.07565,20.5932203 C193.07565,22.9576271 191.946725,24.5084746 189.977671,25.2966102 L193.732001,32.7711864 Z M183.49292,22.8813559 L185.960801,22.8813559 C188.139887,22.8813559 189.400082,22.4237288 189.400082,20.5932203 C189.400082,18.7627119 188.139887,18.2542373 185.960801,18.2542373 L183.49292,18.2542373 L183.49292,22.8813559 Z M201.841665,15.2288136 L201.841665,32.7711864 L198.166097,32.7711864 L198.166097,15.2288136 L201.841665,15.2288136 Z M217.801292,15.2288136 L221.476859,15.2288136 L221.476859,25.6525424 C221.476859,30.8389831 218.536405,33 214.519535,33 C210.502664,33 207.56221,30.8389831 207.56221,25.6779661 L207.56221,15.2288136 L211.237778,15.2288136 L211.237778,25.6779661 C211.237778,28.6779661 212.261686,30 214.519535,30 C216.777384,30 217.801292,28.6779661 217.801292,25.6779661 L217.801292,15.2288136 Z M230.374146,15.2288136 L235.467432,24.7881356 L240.508211,15.2288136 L244,15.2288136 L244,32.7711864 L240.481957,32.7711864 L240.481957,21.8898305 L236.543848,29.6186441 L234.312254,29.6186441 L230.426654,21.9661017 L230.426654,32.7711864 L226.934864,32.7711864 L226.934864,15.2288136 L230.374146,15.2288136 Z" id="LEDGERIUM-Copy"></path>
                </g>
            </g>
        </g>
    </g>
</svg>